<?xml version="1.0" encoding="utf-8"?>
<!-- Generator: Adobe Illustrator 17.1.0, SVG Export Plug-In . SVG Version: 6.00 Build 0)  -->
<!DOCTYPE svg PUBLIC "-//W3C//DTD SVG 1.1//EN" "http://www.w3.org/Graphics/SVG/1.1/DTD/svg11.dtd">
<svg version="1.1" id="Layer_1" xmlns="http://www.w3.org/2000/svg" xmlns:xlink="http://www.w3.org/1999/xlink" x="0px" y="0px"
	 viewBox="0 0 34.2 34.2" style="enable-background:new 0 0 34.2 34.2;" xml:space="preserve">
<style type="text/css">
	.st0{fill:#333333;}
	.st1{fill:#36B268;}
	.st2{fill:#00CC96;}
	.st3{fill:#35383F;}
	.st4{fill:#8B364D;}
	.st5{fill:#F8284C;}
	.st6{fill:#EDEDED;}
	.st7{fill:none;stroke:#009245;stroke-miterlimit:10;}
	.st8{fill:#00E5A3;}
	.st9{fill:#00996D;}
	.st10{fill:#00B27F;}
</style>
<g>
	<defs>
		<rect id="SVGID_1_" x="-1318.3" y="-155.7" width="1029" height="683"/>
	</defs>
	<clipPath id="SVGID_2_">
		<use xlink:href="#SVGID_1_"  style="overflow:visible;"/>
	</clipPath>
	<g style="clip-path:url(#SVGID_2_);">
		
			<image style="overflow:visible;" width="3264" height="2176" xlink:href="../../../../../../../../Dropbox/Term 3/2005 - Portfolio Class/background.JPG"  transform="matrix(0.3571 0 0 0.3571 -1320.4192 -218.7601)">
		</image>
	</g>
</g>
<rect x="-1317.3" y="-153.7" class="st0" width="147" height="679"/>
<g>
	<g>
		<text transform="matrix(1 0 0 1 -838.3381 -15.9662)" class="st1" style="font-family:'Exo2-LightItalic'; font-size:36.8769;">front end development &amp;</text>
	</g>
	<text transform="matrix(1 0 0 1 -411.4309 -15.9662)" class="st2" style="font-family:'Exo2-LightItalic'; font-size:36.8769;">design</text>
</g>
<text transform="matrix(1 0 0 1 -1001.1279 -69.1901)" class="st3" style="font-family:'BaronNeueBlack'; font-size:80.7724;">airrick dunfield</text>
<g>
	<g>
		<path class="st3" d="M-86.5,23.7c0-2.4,0.5-4.6,1.4-6.7c0.9-2.1,2.1-4,3.7-5.5c1.6-1.5,3.4-2.8,5.5-3.7s4.4-1.4,6.7-1.4
			c2.4,0,4.6,0.5,6.8,1.4c2.1,0.9,4,2.1,5.5,3.7c1.5,1.5,2.8,3.4,3.7,5.5c0.9,2.1,1.4,4.4,1.4,6.8c0,3.8-1.1,7.2-3.3,10.2
			s-5.1,5.1-8.6,6.3c-0.4,0.1-0.7,0-0.9-0.1s-0.3-0.4-0.3-0.7c0,0,0-0.6,0-1.7c0-1.1,0-2.1,0-3c0-1.5-0.4-2.5-1.2-3.2
			c0.9-0.1,1.6-0.2,2.3-0.4c0.7-0.2,1.4-0.5,2.1-0.9c0.7-0.4,1.3-0.9,1.8-1.5c0.5-0.6,0.9-1.4,1.2-2.4c0.3-1,0.5-2.1,0.5-3.4
			c0-1.8-0.6-3.4-1.8-4.6c0.1-0.2,0.1-0.4,0.2-0.6s0.1-0.5,0.2-0.9c0-0.4,0-0.9-0.1-1.4c-0.1-0.5-0.2-1.1-0.4-1.6c0,0-0.1,0-0.2,0
			s-0.3,0-0.5,0c-0.3,0-0.6,0.1-0.9,0.2c-0.3,0.1-0.8,0.3-1.3,0.6s-1.2,0.6-1.8,1c-1.3-0.4-2.8-0.6-4.3-0.6c-1.6,0-3,0.2-4.3,0.6
			c-0.6-0.4-1.2-0.8-1.8-1s-1-0.5-1.4-0.6c-0.4-0.1-0.7-0.2-0.9-0.2c-0.3,0-0.5,0-0.6,0l-0.2,0c-0.7,1.7-0.7,3.2-0.2,4.6
			c-1.2,1.3-1.8,2.8-1.8,4.6c0,1.3,0.2,2.4,0.5,3.4c0.3,1,0.7,1.8,1.2,2.4c0.5,0.6,1.1,1.1,1.8,1.5c0.7,0.4,1.4,0.7,2.1,0.9
			c0.7,0.2,1.5,0.3,2.3,0.4c-0.6,0.5-1,1.3-1.1,2.3c-0.3,0.1-0.7,0.3-1,0.3c-0.4,0.1-0.8,0.1-1.3,0.1c-0.5,0-1-0.2-1.5-0.5
			c-0.5-0.3-0.9-0.8-1.3-1.4c0,0-0.1-0.1-0.1-0.2s-0.2-0.2-0.3-0.4c-0.2-0.2-0.3-0.4-0.5-0.5c-0.2-0.2-0.4-0.3-0.7-0.4
			c-0.3-0.1-0.6-0.2-0.9-0.2c0,0-0.1,0-0.2,0c-0.1,0-0.2,0-0.3,0.1s-0.2,0.1-0.3,0.2c-0.1,0.1,0,0.2,0.1,0.3s0.3,0.3,0.6,0.5
			c0,0,0.1,0,0.1,0.1c0.1,0,0.2,0.1,0.3,0.2s0.3,0.3,0.5,0.5c0.1,0.2,0.3,0.4,0.5,0.7c0.2,0.3,0.4,0.7,0.5,1c0,0,0,0.1,0,0.1
			c0,0,0.1,0.1,0.1,0.3c0.1,0.1,0.2,0.3,0.3,0.4c0.1,0.1,0.2,0.3,0.4,0.5s0.4,0.3,0.6,0.5c0.2,0.1,0.5,0.3,0.8,0.4
			c0.3,0.1,0.6,0.2,1,0.3c0.3,0.1,0.7,0.1,1.2,0.1c0.5,0,1-0.1,1.5-0.2c0,0.6,0,1.2,0,1.9c0,0.7,0,1,0,1.1c0,0.3-0.1,0.5-0.3,0.7
			c-0.2,0.2-0.5,0.2-0.9,0.2c-3.5-1.2-6.3-3.3-8.6-6.3S-86.5,27.4-86.5,23.7z"/>
	</g>
</g>
<g>
	<polygon class="st3" points="7,20.4 14.7,25.9 14.7,21 10.4,17.9 	"/>
	<polygon class="st3" points="14.7,12.2 14.7,7.3 7,12.8 10.4,15.3 	"/>
	<polygon class="st3" points="26.8,12.8 18.7,7.3 18.7,12.2 23.2,15.3 	"/>
	<polygon class="st3" points="17,14.1 13.2,16.6 17,19.1 20.8,16.6 	"/>
	<polygon class="st3" points="6.7,14.8 6.7,18.4 9.4,16.6 	"/>
	<path class="st3" d="M17.1,0C7.7,0,0,7.7,0,17.1c0,9.4,7.7,17.1,17.1,17.1s17.1-7.7,17.1-17.1C34.2,7.7,26.5,0,17.1,0z M29.1,21.2
		l-11.4,7.6C17.5,28.9,17.3,29,17,29c-0.2,0-0.4-0.1-0.6-0.2L4.6,21.2c-0.3-0.2-0.9-0.5-0.9-0.9v-7.6c0-0.3,0.6-0.6,0.9-0.9
		l11.6-7.6c0.2-0.1,0.5-0.2,0.7-0.2c0.2,0,0.5,0.1,0.7,0.2l11.5,7.6c0.3,0.3,0.6,0.6,0.6,0.9v7.6C29.7,20.7,29.4,21,29.1,21.2z"/>
	<polygon class="st3" points="26.7,18.4 26.7,14.8 24.1,16.6 	"/>
	<polygon class="st3" points="18.7,21 18.7,25.9 26.8,20.4 23.2,17.9 	"/>
</g>
<g>
	<text transform="matrix(1 0 0 1 -97.5419 113.5216)" class="st3" style="font-family:'Socialico'; font-size:51.4104;">t</text>
</g>
<text transform="matrix(1 0 0 1 -167.0487 123.1976)" class="st3" style="font-family:'Socialico'; font-size:50.9857;">i</text>
<g>
	<path class="st3" d="M-139.1-13.7c2.3,0,4.5,0.5,6.6,1.4c2.1,0.9,3.8,2.1,5.4,3.7c1.5,1.5,2.7,3.3,3.6,5.4c0.9,2.1,1.3,4.2,1.3,6.6
		c0,2.4-0.4,4.6-1.3,6.6c-0.9,2.1-2.1,3.9-3.6,5.4c-1.5,1.6-3.3,2.8-5.4,3.7c-2.1,0.9-4.3,1.3-6.6,1.3c-2.4,0-4.6-0.4-6.6-1.3
		c-2.1-0.9-3.9-2.1-5.4-3.7c-1.6-1.6-2.8-3.4-3.7-5.4c-0.9-2.1-1.3-4.3-1.3-6.6c0-2.3,0.4-4.5,1.3-6.6c0.9-2.1,2.1-3.9,3.6-5.4
		c1.5-1.5,3.3-2.8,5.4-3.7c2.1-0.9,4.2-1.4,6.6-1.4H-139.1z M-148.8,9.3h5.3c0.6,0,1.1,0,1.7-0.1c0.3-0.1,0.5-0.1,0.7-0.2
		s0.4-0.2,0.6-0.4c0.4-0.3,0.6-0.6,0.9-0.9c0.4-0.6,0.5-1.2,0.5-1.9c0-0.6-0.2-1.2-0.5-1.7c-0.3-0.5-0.7-0.8-1.4-1.1
		c0.4-0.2,0.7-0.4,0.9-0.7c0.4-0.4,0.6-1,0.6-1.7c0-0.7-0.2-1.3-0.5-1.8c-0.6-0.8-1.7-1.3-3.1-1.3h-5.7V9.3z M-142.3,1.8
		c-0.4,0.2-0.8,0.3-1.3,0.3h-2.5v-2.6h2.2c0.3,0,0.5,0,0.8,0c0.2,0,0.4,0.1,0.6,0.1c0.4,0.2,0.6,0.6,0.6,1.1
		C-141.8,1.3-141.9,1.6-142.3,1.8z M-141.5,5.5c0,0.8-0.3,1.3-0.8,1.5c-0.3,0.1-0.7,0.2-1.2,0.2h-2.5V4.1h2.6c0.5,0,0.9,0.1,1.2,0.2
		C-141.8,4.5-141.5,4.9-141.5,5.5z M-136.9,1.4c-0.8,0.8-1.2,2-1.2,3.4c0,1.6,0.4,2.7,1.3,3.4c0.9,0.7,1.9,1,3,1
		c1.4,0,2.5-0.4,3.2-1.2c0.5-0.5,0.8-1.1,0.8-1.6h-2.3c-0.1,0.3-0.2,0.5-0.4,0.6c-0.4,0.3-0.8,0.4-1.3,0.4s-0.9-0.1-1.2-0.3
		c-0.6-0.4-0.9-1-0.9-1.8h6.2c0-0.4,0-0.7,0-0.9c0-0.3,0-0.5-0.1-0.7c-0.1-0.6-0.3-1.2-0.7-1.8c-0.4-0.5-0.8-0.9-1.5-1.3
		c-0.6-0.3-1.3-0.4-2-0.4C-135.1,0.2-136.1,0.6-136.9,1.4z M-136.3-0.9h4.8v-1.2h-4.8V-0.9z M-132.6,2.5c0.4,0.4,0.5,0.8,0.6,1.4
		h-3.8c0.1-0.5,0.3-1,0.6-1.3c0.3-0.3,0.8-0.5,1.4-0.5C-133.4,2-132.9,2.2-132.6,2.5z"/>
</g>
<g>
	<path class="st4" d="M-1295.9,483.2h106.9c1.8,0,3.3-1.5,3.3-3.3v-25.1c0-1.8-1.5-3.3-3.3-3.3h-106.9c-1.8,0-3.3,1.5-3.3,3.3v25.1
		C-1299.3,481.7-1297.8,483.2-1295.9,483.2z"/>
	<path class="st5" d="M-1295.9,480.4h106.9c1.8,0,3.3-1.5,3.3-3.3V452c0-1.8-1.5-3.3-3.3-3.3h-106.9c-1.8,0-3.3,1.5-3.3,3.3v25.1
		C-1299.3,478.9-1297.8,480.4-1295.9,480.4z"/>
	<text transform="matrix(1 0 0 1 -1285.8898 470.5058)" class="st6" style="font-family:'Exo2-Regular'; font-size:20.3415;">say hello</text>
</g>
<text transform="matrix(1 0 0 1 -1288.9868 181.6939)" class="st6" style="font-family:'BaronNeueItalic'; font-size:18.1239;">contact</text>
<text transform="matrix(1 0 0 1 -1291.2239 124.6943)" class="st6" style="font-family:'BaronNeueItalic'; font-size:18.1239;">Mission</text>
<text transform="matrix(1 0 0 1 -1290.4546 67.6944)" class="st6" style="font-family:'BaronNeueItalic'; font-size:18.1239;">portfolio</text>
<rect x="-1319.8" y="-151.2" class="st7" width="1032" height="678"/>
<rect x="-1019.2" y="189.8" class="st2" width="275" height="70"/>
<rect x="-692.2" y="189.8" class="st2" width="275" height="70"/>
<text transform="matrix(1 0 0 1 -989.3169 232.8218)" class="st6" style="font-family:'Exo2-Italic'; font-size:29;">the things I make</text>
<text transform="matrix(1 0 0 1 -665.3169 232.8218)" class="st6" style="font-family:'Exo2-Italic'; font-size:28;">why I make them</text>
<g>
	<path class="st8" d="M-1241.6-15.5l-44.5-25.1c-1-0.6-1.6-1.6-1.6-2.8l-0.5-51.1c0-1.2,0.6-2.2,1.6-2.8l44-25.9
		c1-0.6,2.2-0.6,3.2,0l44.5,25.1c1,0.6,1.6,1.6,1.6,2.8l0.5,51.1c0,1.2-0.6,2.2-1.6,2.8l-44,25.9C-1239.3-15-1240.6-15-1241.6-15.5z
		"/>
	<g>
		<g>
			<path class="st9" d="M-1242.4-93.4c0.8-1.5,2.2-1.5,3,0l21.5,39c0.8,1.5,0.1,2.7-1.6,2.7l-43.5-0.3c-1.7,0-2.4-1.2-1.6-2.7
				L-1242.4-93.4z"/>
		</g>
		<g>
			<path class="st2" d="M-1213.2-56.8c-0.7,1.5-2,1.6-2.8,0.1l-20.7-37.4c-0.8-1.5-0.1-2.6,1.6-2.5l35.9,2.7c1.7,0.1,2.5,1.5,1.8,3
				L-1213.2-56.8z"/>
		</g>
		<g>
			<path class="st9" d="M-1238.7-20c-1,1.4-2.7,1.4-3.7,0l-20.4-26.4c-1-1.3-0.5-2.4,1.2-2.4l41.7,0c1.7,0,2.2,1.1,1.2,2.5
				L-1238.7-20z"/>
		</g>
		<g>
			<path class="st10" d="M-1268.2-56.7c0.7,1.5,2,1.6,2.8,0.1l20.2-37.1c0.8-1.5,0.1-2.6-1.6-2.5l-35.5,2.5c-1.7,0.1-2.5,1.5-1.8,3
				L-1268.2-56.7z"/>
		</g>
		<g>
			<path class="st10" d="M-1231.6-22.7c-1.5,0.9-1.8,0.4-0.8-0.9l17-22.7c1-1.4,3.1-1.9,4.6-1.1l9.1,4.4c1.5,0.7,1.6,2,0.1,2.9
				L-1231.6-22.7z"/>
		</g>
		<g>
			<path class="st2" d="M-1267.9-48.9l-11.9,5.8c-1.5,0.7-1.6,2-0.1,2.9l32.6,19"/>
		</g>
		<g>
			<path class="st9" d="M-1285.7-84.8c0-1.7,0.6-1.8,1.3-0.3l14.2,31.2c0.7,1.5,0,3.4-1.5,4.1l-11.2,5.1c-1.5,0.7-2.8-0.1-2.8-1.8
				V-84.8z"/>
		</g>
		<g>
			<path class="st9" d="M-1212.4-51l14,6.3c1.5,0.7,2.8-0.1,2.8-1.8v-41.3"/>
		</g>
		<g>
			<path class="st10" d="M-1239.6-117.3c0-1.7,1.2-2.4,2.6-1.5l36,20.7c1.5,0.8,1.3,1.4-0.4,1.3l-35-2.3c-1.7-0.1-3.1-1.6-3.1-3.3
				L-1239.6-117.3z"/>
		</g>
		<g>
			<path class="st2" d="M-1242.2-117.1c0-1.7-1.2-2.4-2.6-1.5l-36,20.7c-1.5,0.8-1.3,1.4,0.4,1.3l35-2.3c1.7-0.1,3.1-1.6,3.1-3.3
				L-1242.2-117.1z"/>
		</g>
	</g>
</g>
</svg>
